 <svg version="1.0" xmlns="http://www.w3.org/2000/svg" width="700.000000pt" height="700.000000pt" viewBox="0 0 700.000000 700.000000" preserveAspectRatio="xMidYMid meet">
<metadata>
Created by potrace 1.12, written by Peter Selinger 2001-2015
</metadata>
<g transform="translate(0.000000,700.000000) scale(0.100000,-0.100000)" fill="#000000" stroke="none">
<path d="M2065 5608 c-188 -19 -337 -67 -470 -151 -39 -25 -181 -133 -219
-167 -95 -86 -237 -311 -264 -420 -53 -214 -62 -340 -62 -869 0 -660 18 -816
119 -1031 54 -115 205 -289 331 -382 92 -67 252 -145 360 -174 70 -19 274 -54
319 -54 90 0 298 41 416 82 104 36 285 145 360 215 50 46 180 205 208 253 41
71 97 187 97 202 0 7 10 42 21 78 12 36 26 108 31 160 14 123 22 780 10 792
-5 5 -252 9 -563 9 l-554 -1 0 -226 0 -226 303 1 c220 2 308 -1 318 -10 11 -9
14 -42 14 -148 0 -222 -50 -357 -184 -494 -79 -82 -157 -131 -261 -167 -61
-21 -88 -24 -210 -24 -150 1 -140 -2 -292 70 -196 94 -303 254 -345 519 -17
112 -18 966 0 1090 27 189 69 282 184 403 74 78 131 116 230 154 78 30 91 32
218 32 168 1 257 -22 360 -93 99 -69 250 -274 250 -340 0 -20 5 -20 253 -23
138 -2 258 1 264 6 10 6 9 13 -2 29 -8 12 -15 29 -15 38 0 24 -46 162 -76 228
-70 153 -232 349 -368 445 -169 120 -288 163 -526 191 -139 16 -130 16 -255 3z"></path>
<path d="M3904 5588 c-8 -13 -4 -3182 4 -3190 5 -5 339 -7 743 -5 725 3 735 3
809 25 41 13 89 26 105 31 47 13 164 78 235 132 129 97 252 286 302 464 20 69
23 104 23 250 0 207 -7 237 -91 409 -65 133 -193 246 -337 301 -34 12 -62 29
-62 36 0 7 29 30 65 52 237 144 343 295 374 532 12 96 4 275 -15 330 -6 17
-14 46 -18 65 -13 64 -95 214 -153 281 -31 36 -85 86 -120 111 -71 51 -217
123 -263 131 -16 3 -61 13 -100 22 -61 16 -136 18 -595 21 -289 2 -610 5 -713
7 -104 1 -191 -1 -193 -5z m1381 -452 c81 -27 132 -54 169 -89 41 -40 99 -130
123 -189 23 -59 29 -235 10 -280 -8 -18 -24 -56 -37 -84 -29 -66 -125 -163
-193 -196 -114 -55 -157 -59 -577 -56 l-385 3 -3 445 c-1 245 0 451 3 458 4
11 79 13 423 9 354 -3 425 -7 467 -21z m-73 -1335 c143 -16 233 -54 308 -132
139 -145 171 -391 73 -571 -77 -143 -188 -214 -376 -242 -128 -19 -774 -24
-808 -6 -18 10 -19 26 -19 479 0 257 3 471 7 474 10 10 715 8 815 -2z"></path>
<path d="M829 2048 c0 -2 -1 -49 -2 -106 -2 -95 -1 -103 18 -108 11 -2 1246
-3 2744 -2 l2725 3 -1 105 -1 105 -2741 3 c-1508 1 -2741 1 -2742 0z"></path>
</g>
</svg>